<svg width="20" height="25" viewBox="0 0 20 25" fill="none" xmlns="http://www.w3.org/2000/svg">
<g id="logos:apple" clip-path="url(#clip0_514_42)">
<path id="Vector" d="M16.7031 13.0492C16.7377 16.7664 19.9641 18.0034 19.9998 18.0191C19.9724 18.1063 19.4842 19.7819 18.3 21.5126C17.2763 23.0089 16.2137 24.4997 14.5399 24.5305C12.8953 24.5609 12.3664 23.5553 10.4861 23.5553C8.60634 23.5553 8.01876 24.4997 6.46189 24.5609C4.84626 24.622 3.61595 22.9429 2.58376 21.452C0.474386 18.4026 -1.13757 12.8348 1.02689 9.07656C2.10212 7.21016 4.02376 6.02836 6.10939 5.99805C7.69587 5.96781 9.19337 7.06539 10.1632 7.06539C11.1324 7.06539 12.9522 5.74547 14.8652 5.9393C15.666 5.97266 17.9142 6.26273 19.3577 8.3757C19.2413 8.44781 16.6752 9.94164 16.7031 13.0493V13.0492ZM13.6123 3.9218C14.4701 2.88352 15.0474 1.4382 14.8899 0C13.6534 0.0496875 12.1584 0.823906 11.2716 1.86156C10.4768 2.78055 9.78079 4.25133 9.9686 5.66102C11.3467 5.76766 12.7545 4.9607 13.6124 3.9218" fill="white"/>
</g>
<defs>
<clipPath id="clip0_514_42">
<rect width="20" height="24.6094" fill="white"/>
</clipPath>
</defs>
</svg>
